<svg viewBox="0 0 512 512" fill="none" xmlns="http://www.w3.org/2000/svg">
<rect width="512" height="512" rx="100" fill="#8AC64E"/>
<path d="M356 172.448C355.955 179.001 354.395 185.455 351.442 191.307C348.489 197.158 344.223 202.248 338.978 206.18C328.972 215.04 316.145 220.064 302.781 220.357H263.649V335.339C263.362 339.935 264.031 344.54 265.614 348.865C267.197 353.19 269.659 357.14 272.845 360.467C276.287 363.555 280.306 365.931 284.672 367.458C289.038 368.985 293.663 369.633 298.281 369.364C315.133 370.129 331.981 367.775 347.978 362.422H350.913V405.149C350.859 412.469 348.946 419.656 345.353 426.035C341.759 432.414 336.603 437.776 330.369 441.619C316.672 451.396 296.422 455.991 269.421 455.991C255.608 456.147 241.853 454.202 228.626 450.223C215.868 446.291 203.864 440.242 193.114 432.33C180.946 423.333 171.5 411.153 165.819 397.132C158.938 379.852 155.611 361.363 156.036 342.77V145.854C156.036 119.781 168.754 96.9671 194.19 77.4124C210.364 64.131 230.496 56.5987 251.42 56H262.964V133.437H356V172.448Z" fill="white"/>
</svg>
